<svg id="visual" viewBox="0 0 900 600" width="900" height="600" xmlns="http://www.w3.org/2000/svg" xmlns:xlink="http://www.w3.org/1999/xlink" version="1.1"><g transform="translate(434.43857338831026 288.97603288822324)"><path d="M149.1 -167.5C198.3 -136.4 246.9 -94.2 253.5 -46.2C260.2 1.8 224.9 55.6 192.6 110.8C160.3 166 130.9 222.6 89.4 231.7C47.8 240.9 -6 202.7 -64.3 180C-122.5 157.3 -185.1 150.1 -209.9 116.6C-234.7 83.1 -221.7 23.1 -196.5 -19.9C-171.3 -62.8 -133.9 -88.9 -99.1 -122.6C-64.3 -156.3 -32.1 -197.6 8.9 -208.2C49.9 -218.8 99.8 -198.7 149.1 -167.5" fill="#BB004B"></path></g></svg>